<?xml version="1.0" encoding="utf-8"?>
<!-- Generator: Adobe Illustrator 25.3.1, SVG Export Plug-In . SVG Version: 6.00 Build 0)  -->
<svg version="1.1" id="レイヤー_1" xmlns="http://www.w3.org/2000/svg" xmlns:xlink="http://www.w3.org/1999/xlink" x="0px"
	 y="0px" viewBox="148 269 299 299" style="enable-background:new 0 0 595.28 841.89;" xml:space="preserve">
<style type="text/css">
	.st0{fill:#F7B7C2;}
	.st1{fill-rule:evenodd;clip-rule:evenodd;fill:#FFFFFF;}
</style>
<g>
	<g>
		<g>
			<path class="st0" d="M297.05,567.43c-82.06,0-148.82-66.76-148.82-148.82c0-82.06,66.76-148.82,148.82-148.82
				s148.82,66.76,148.82,148.82C445.88,500.67,379.11,567.43,297.05,567.43z M297.05,279.98c-76.44,0-138.63,62.19-138.63,138.63
				c0,76.44,62.19,138.63,138.63,138.63s138.63-62.19,138.63-138.63C435.68,342.17,373.49,279.98,297.05,279.98z"/>
			<path class="st0" d="M297.05,554.67c-75.03,0-136.06-61.04-136.06-136.07c0-75.03,61.04-136.06,136.06-136.06
				c75.03,0,136.06,61.04,136.06,136.06C433.12,493.63,372.08,554.67,297.05,554.67z M297.05,285.46
				c-73.42,0-133.15,59.73-133.15,133.15c0,73.42,59.73,133.15,133.15,133.15s133.15-59.73,133.15-133.15
				C430.21,345.19,370.47,285.46,297.05,285.46z"/>
		</g>
		<g>
			<path class="st0" d="M429.17,396.27c-10.64-6.31-22.47-12.99-22.47-12.99s5.77-12.64,10.58-23.69
				c-15.43-11.01-40-11.96-65.31-3.74c-5.12,1.66-9.89,4.16-14.31,7.17c1.5-5.15,2.4-10.46,2.4-15.85c0-26.62-8.5-49.68-23.74-60.96
				c-9.02,7.98-19.26,17.38-19.26,17.38s-10.01-9.19-19.29-17.36c-15.22,11.29-23.7,34.34-23.7,60.93c0,5.38,0.9,10.69,2.4,15.83
				c-4.43-3.02-9.2-5.52-14.33-7.18c-25.32-8.23-49.88-7.27-65.31,3.74c4.8,11.05,10.58,23.69,10.58,23.69s-11.83,6.68-22.47,12.99
				c6.03,17.96,25.33,33.16,50.63,41.37c5.12,1.66,10.44,2.45,15.79,2.61c-4.24,3.28-8.09,7.04-11.26,11.41
				c-15.65,21.54-22.32,45.19-16.63,63.27c11.99-1.16,25.8-2.74,25.8-2.74s2.7,13.31,5.41,25.38c18.95-0.19,39.36-13.85,54.99-35.36
				c3.17-4.36,5.55-9.17,7.36-14.22c1.81,5.05,4.2,9.87,7.37,14.24c15.63,21.52,36.04,35.18,54.99,35.37
				c2.71-12.07,5.41-25.38,5.41-25.38s13.81,1.59,25.8,2.74c5.7-18.08-0.98-41.74-16.63-63.27c-3.16-4.36-6.45-8.07-10.69-11.35
				c5.36-0.16,10.13-0.99,15.26-2.66C403.84,429.43,423.13,414.24,429.17,396.27z"/>
			<path class="st1" d="M273.67,365.1c13.4,0,24.7,4.2,31.18,14.41c-12.32,4.96-20.73,15.1-20.73,27.9c0,0.19,0,0.38,0.01,0.57
				l-17.42-4.68c-12.66-3.17-20.05-7.18-20.05-18.57C246.66,373.54,257.84,365.1,273.67,365.1L273.67,365.1z M307.05,378.69
				c-6.76-10.7-19.14-15.71-33.38-15.71c-21.31,0-38.62,12.87-38.62,31.24c0,14.98,10.55,22.16,26.38,26.17l20.47,5.07
				c12.45,3.17,21.53,8.23,21.53,19.42c0,14.77-13.08,22.79-29.33,22.79c-18.57,0-34.34-9.78-38.56-27.93l-4.18,0.5
				c3.83,18.33,21.84,29.54,42.74,29.54c4.67,0,9.08-0.5,13.16-1.45c8.19,9.33,21.38,14.64,35.91,14.64
				c24.27,0,41.57-13.51,41.57-33.77c0-15.83-11.18-22.79-29.34-27.44l-19.63-5.27c-12.66-3.17-20.05-7.18-20.05-18.57
				c0-11.18,11.18-19.63,27.01-19.63c16.46,0,29.76,6.33,34.82,22.37l2.11-1.06c-5.07-16.04-19.63-23.43-36.93-23.43
				C317.15,376.17,311.84,377.05,307.05,378.69L307.05,378.69z M289.7,467.68c15.75-4.53,25.97-16.11,25.97-31.68
				c0-0.39-0.01-0.78-0.02-1.16l15.32,3.79c12.45,3.17,21.53,8.23,21.53,19.42c0,14.77-13.08,22.79-29.33,22.79
				C310.48,480.85,297.81,476.32,289.7,467.68L289.7,467.68z"/>
		</g>
	</g>
	<g>
		<path class="st0" d="M490.98,443.12c4.19-6.67,5.51-13.69,3.52-18.77l-0.28-0.72l-0.76,0.13c-2.35,0.39-4.97,0.86-6.29,1.09
			c-0.35-1.28-1.06-3.81-1.75-6.14l-0.22-0.74l-0.77,0.06c-5.44,0.42-11.19,4.65-15.37,11.31c-5.78,9.2-0.79,23.53-0.58,24.13
			l0.25,0.71l0.75-0.08C470.12,454.04,485.2,452.32,490.98,443.12z"/>
		<path class="st0" d="M103.66,443.12c-4.19-6.67-5.51-13.69-3.52-18.77l0.28-0.72l0.76,0.13c2.35,0.39,4.97,0.86,6.29,1.09
			c0.35-1.28,1.06-3.81,1.75-6.14l0.22-0.74l0.77,0.06c5.44,0.42,11.19,4.65,15.37,11.31c5.78,9.2,0.79,23.53,0.58,24.13l-0.25,0.71
			l-0.75-0.08C124.52,454.04,109.44,452.32,103.66,443.12z"/>
	</g>
	<g>
		<path class="st0" d="M132.51,498.13c1.37-2.15,1.83-4.23,1.37-6.22c-0.32-1.21-0.56-2.07-0.73-2.61
			c-1.35-4.33-1.67-7.45-0.96-9.24c0.38-0.9,1.38-1.68,2.96-2.32c1.58-0.64,2.98-0.67,4.28-0.12c1.27,0.59,2.22,1.66,2.9,3.26
			c0.52,1.29,0.71,3.06,0.57,5.27c-0.09,1.65,0.07,2.85,0.55,3.74c0.57,0.84,1.64,1.39,3.22,1.62c0.95,0.11,1.97-0.06,3.01-0.53
			c0.74-0.33,1.13-0.79,1.17-1.36c0.04-0.57-0.28-1.09-0.88-1.47c-1.06-0.92-1.63-2.01-1.74-3.34c-0.12-1.63-0.74-3.82-1.9-6.69
			c-1.15-2.85-3.26-4.83-6.26-5.87c-2.15-0.72-4.59-0.53-7.25,0.55c-2.39,0.97-4.26,2.58-5.57,4.81c-1.03,1.86-0.98,4.73,0.15,8.77
			c0.33,1.14,0.75,2.54,1.25,4.18c0.47,1.71,0.43,3-0.12,3.8c-0.74,1.01-1.98,1.86-3.68,2.56c-1.68,0.67-3.23,0.75-4.77,0.24
			c-1.68-0.53-3.03-1.99-4.01-4.32c-1.08-2.67-1.2-5.39-0.37-8.07c1.08-3.3,1.33-3.98,1.37-4.08c0.88-1.77-0.02-2.62-0.49-2.92
			c-0.59-0.35-1.52-0.61-2.74,0.15l-1.47,1.18c-1.19,1.05-1.98,2.29-2.33,3.69c-0.22,0.89-0.4,2.07-0.55,3.5
			c-0.23,2.16,0.51,5.31,2.26,9.63c1.16,2.86,3.3,4.98,6.39,6.29c1.55,0.63,3.11,0.94,4.66,0.94c1.53,0,3.06-0.31,4.57-0.92
			C129.66,501.29,131.39,499.92,132.51,498.13z"/>
		<path class="st0" d="M157.46,523.45c0.83-0.54,1.36-1.39,1.57-2.57c0.17-1.14,0.07-2.04-0.35-2.78c-0.3-0.47-0.91-1.04-2.11-1.07
			c-0.32,0.01-0.69,0.11-1.12,0.29c0.22-2.09-0.23-4.02-1.34-5.73c-1.78-2.74-4.59-4.22-8.35-4.41c-3.54-0.19-7.39,1.02-11.34,3.59
			c-3.32,2.16-5.73,4.92-7.18,8.23c-1.36,3.38-1.08,6.58,0.83,9.51c1.27,1.95,3.05,3.23,5.31,3.83c-0.19,0.2-0.35,0.42-0.49,0.63
			c-0.27,0.54-0.27,1.12,0.07,1.77c0.55,0.84,1.56,1.37,3,1.58c0.51,0.07,0.97,0.11,1.39,0.11c0.82,0,1.47-0.14,1.98-0.43
			c0.07-0.04,0.13-0.09,0.19-0.15c2.65-2.68,6.23-5.5,10.63-8.36C153.03,525.62,155.44,524.28,157.46,523.45z M150.96,519.03
			c-0.28,0.95-0.73,2-1.34,3.11c-0.65,0.54-1.32,1.04-2.01,1.49c-3.24,2.1-6.22,3.91-8.86,5.36c-0.76-0.04-1.5-0.1-2.16-0.17
			c-2.34-0.42-3.99-1.31-4.9-2.65c-0.92-1.41-0.93-2.97-0.03-4.77c1.08-2.2,3.24-4.38,6.41-6.49c2.76-1.79,5.4-2.77,7.84-2.92
			c0.16-0.01,0.33-0.01,0.48-0.01c1.87,0,3.2,0.65,4.07,1.98C151.31,515.28,151.47,516.95,150.96,519.03z"/>
		<path class="st0" d="M179.51,544.09c-0.11-0.71-0.39-1.23-0.83-1.54c-0.29-0.2-0.78-0.4-1.53-0.23c-1.38,0.38-3.1,0.56-5.2,0.52
			c-3.23-0.13-6.94-0.47-11.03-1c5.13-4.91,9.63-8.42,13.36-10.45c0.07-0.04,0.13-0.09,0.19-0.14c0.61-0.6,0.88-1.47,0.77-2.74
			c-0.27-1.09-0.64-1.95-1.19-2.66c-0.48-0.49-1.05-0.8-1.71-0.93c-0.75-0.14-1.44,0.07-2.04,0.65c-2.64,3.11-5.78,6.48-9.36,10.02
			c-3.42,3.34-8.01,7.48-13.67,12.33c-1.06,0.96-1.64,1.93-1.72,2.87c-0.09,0.85,0.08,1.54,0.56,2.12c0.48,0.49,1.26,0.86,2.33,1.13
			c0.56,0.15,1.43,0.19,2.31-0.57c0.06-0.06,0.12-0.12,0.17-0.19c1.42-2.21,3.39-4.66,5.86-7.3c1.3,0.03,2.64,0.11,4,0.25
			c-0.69,4.8-1.6,9.35-2.72,13.57c-0.45,1.97-0.23,3.47,0.6,4.38c1.08,1.47,2.51,2.57,4.28,3.27c0.21,0.07,0.66,0.24,1.13,0.24
			c0.37,0,0.74-0.1,1.03-0.41c0.67-0.71,0.19-1.8,0.02-2.18c-0.85-1.81-1.2-4.01-1.04-6.52c0.34-4.31,0.9-8.27,1.68-11.79
			c4.77,0.49,7.94,1.07,9.47,1.74c0.85,0.33,2.12,0.47,3.42-0.8C179.44,546.89,179.73,545.67,179.51,544.09z"/>
		<path class="st0" d="M208.15,562.76c-1.11-0.76-2.06-1.06-3-0.89c-1.04,0.3-1.83,1.06-2.35,2.25c-1.33,3.01-2.84,5.73-4.42,8.02
			c-2.44,2.85-4.43,5-5.91,6.39c-1.53,1.44-2.92,2.28-4.12,2.47c-1.55,0.23-2.76,0.02-3.7-0.63c-1.56-1.08-2.2-2.53-1.95-4.4
			c0.26-1.57,1.52-4.05,3.77-7.36c3.59-4.59,6.25-7.64,7.9-9.08c0.75-0.69,1.05-1.59,0.87-2.6c-0.17-0.93-0.69-1.73-1.59-2.41
			c-0.68-0.47-1.46-0.68-2.35-0.63c-1.24,0.05-1.75,0.76-1.93,1.15c-0.89,1.69-2.37,4.1-4.37,7.13l-4.5,6.09
			c-2.07,2.99-3.07,5.76-2.98,8.24c0.12,3.22,1.61,5.83,4.42,7.77c1.11,0.77,2.59,1.27,4.44,1.5c0.67,0.06,1.41,0,2.24-0.16
			c-0.97,1.09-1.56,2.01-1.79,2.84c-0.14,0.71-0.05,1.74,1.2,2.68c0.75,0.52,1.43,0.71,2.02,0.71c0.58,0,1.08-0.18,1.49-0.41
			c0.73-0.51,1.74-1.65,3.13-3.5c2.51-3.63,5.19-7.96,7.94-12.83c1.16-1.94,2.95-4.02,5.31-6.17c1.35-1.2,1.95-2.32,1.84-3.41
			C209.6,564.32,209.07,563.4,208.15,562.76z"/>
		<path class="st0" d="M231.26,576.77c-1.92-0.83-4.03-0.8-6.26,0.1c0.1-0.11,0.2-0.21,0.3-0.31c0.08-0.08,0.14-0.16,0.18-0.26
			c0.79-1.8-0.35-2.56-0.74-2.75c-0.88-0.43-1.98-0.67-3.28-0.71c-1.64,0.03-2.37,0.93-2.75,1.83c-0.9,3.89-2.13,7.69-3.65,11.27
			c-1.69,3.87-3.46,7.33-5.3,10.37c-0.57,1.19-0.75,2.21-0.54,3.1c0.15,0.75,0.71,1.37,1.71,1.86c0.3,0.13,0.62,0.2,0.98,0.2
			c0.62,0,1.34-0.21,2.17-0.63c0.9-0.53,1.51-1.1,1.84-1.75c0.04-0.07,0.06-0.15,0.08-0.22c0.73-3.49,2.21-8.04,4.39-13.53
			c0.86-1.14,1.71-2.02,2.56-2.62c2.12-1.6,3.93-2.03,5.53-1.34c1.05,0.46,1.69,1.44,1.96,3.05c0.24,1,0.64,1.68,1.29,2.1
			c0.93,0.52,2.05-0.06,2.42-0.25c0.91-0.47,1.56-1.2,1.94-2.18c0.41-1.06,0.3-2.12-0.3-3.06
			C234.45,578.93,232.92,577.5,231.26,576.77z"/>
		<path class="st0" d="M264.31,586.04c-0.54-0.14-1.36-0.14-2.27,0.67c-0.23,0.23-0.43,0.55-0.62,0.98
			c-1.27-1.68-2.92-2.78-4.9-3.26c-3.16-0.79-6.23,0.06-9.1,2.49c-2.73,2.3-4.69,5.79-5.82,10.38c-0.95,3.85-0.82,7.51,0.39,10.92
			c1.32,3.39,3.71,5.54,7.11,6.38c2.27,0.56,4.45,0.27,6.49-0.84c0,0.28,0.03,0.54,0.08,0.79c0.12,0.4,0.41,0.94,1.27,1.25
			c0.21,0.05,0.43,0.08,0.66,0.08c0.8,0,1.67-0.33,2.6-0.98c1.25-0.87,1.98-1.7,2.24-2.53c0.02-0.08,0.04-0.16,0.04-0.24
			c0.1-3.77,0.78-8.27,2.04-13.37c0.83-3.37,1.68-6,2.57-7.98c0.24-0.96,0.04-1.95-0.61-2.94
			C265.81,586.87,265.12,586.29,264.31,586.04z M260.45,595.18c-0.11,0.85-0.26,1.68-0.45,2.46c-0.91,3.72-1.85,7.07-2.79,9.96
			c-0.59,0.49-1.16,0.95-1.69,1.35c-2,1.29-3.81,1.77-5.39,1.42c-1.63-0.4-2.71-1.54-3.29-3.47c-0.71-2.33-0.63-5.4,0.25-9.12
			c0.78-3.19,2.04-5.71,3.72-7.49c1.15-1.21,2.35-1.8,3.61-1.8c0.35,0,0.7,0.04,1.06,0.13c1.52,0.37,2.78,1.48,3.82,3.35
			C259.74,592.86,260.13,593.93,260.45,595.18z"/>
		<path class="st0" d="M331.33,598.41c-1.71-1.88-3.6-2.87-5.65-2.95c-1.24-0.01-2.15,0-2.71,0.03c-4.54,0.18-7.63-0.33-9.17-1.48
			c-0.77-0.6-1.26-1.77-1.46-3.48c-0.2-1.69,0.13-3.05,1-4.16c0.9-1.07,2.19-1.71,3.91-1.96c1.38-0.17,3.14,0.11,5.24,0.82
			c1.57,0.53,2.78,0.68,3.75,0.45c0.97-0.33,1.75-1.2,2.4-2.68c0.36-0.9,0.46-1.92,0.27-3.05c-0.13-0.8-0.47-1.3-1.01-1.49
			c-0.54-0.2-1.12,0-1.64,0.47c-1.16,0.79-2.37,1.05-3.68,0.8c-1.61-0.31-3.89-0.29-6.96,0.09c-3.05,0.37-5.5,1.88-7.3,4.51
			c-1.25,1.89-1.71,4.29-1.37,7.14c0.31,2.56,1.38,4.79,3.19,6.63c1.52,1.48,4.32,2.18,8.51,2.15c1.18-0.03,2.65-0.06,4.36-0.11
			c0.02,0,0.03,0,0.05,0c1.75,0,2.96,0.38,3.59,1.11c0.78,0.98,1.28,2.4,1.5,4.22c0.22,1.79-0.11,3.31-1.01,4.66
			c-0.96,1.5-2.67,2.4-5.22,2.74c-2.91,0.35-5.48-0.23-7.89-1.75c-2.17-1.42-3.38-2.23-3.58-2.38c-1.49-1.32-2.54-0.66-2.95-0.29
			c-0.69,0.67-0.91,1.59-0.57,2.69l0.75,1.72c0.7,1.42,1.69,2.5,2.96,3.21c0.81,0.45,1.9,0.93,3.24,1.44
			c1.18,0.46,2.77,0.69,4.81,0.69c1.46,0,3.15-0.12,5.08-0.35c3.07-0.37,5.67-1.89,7.74-4.52c2.01-2.65,2.83-5.65,2.43-8.91
			C333.64,601.99,332.76,599.97,331.33,598.41z"/>
		<path class="st0" d="M358.12,606.54c0.37,1.34,0.28,2.45-0.21,3.5c-0.42,1.07-1.04,1.73-1.84,1.9c-0.27,0.09-0.55,0.13-0.83,0.13
			c-0.51,0-1.04-0.13-1.55-0.41c-0.9-0.4-1.56-1.27-1.9-2.56c-0.65-3.65-1.48-7.17-2.49-10.53c-1.39-4.62-2.96-8.42-4.65-11.29
			c-0.05-0.08-0.09-0.18-0.11-0.27c-0.12-0.61,0.05-1.3,0.52-2.09c0.57-0.75,1.07-1.17,1.58-1.39c0.91-0.22,1.87-0.06,3.07,0.44
			c1.34,0.64,2.1,1.36,2.35,2.21c0.28,3.53,0.98,7.14,2.12,10.92C355.16,600.32,356.48,603.5,358.12,606.54z M347.4,582.35
			c1.07-0.32,1.87-1.01,2.37-2.03c0.52-0.98,0.65-2,0.38-3.09c-0.32-1.05-1-1.87-2.04-2.43c-0.99-0.53-2.03-0.64-3.08-0.33
			c-1.04,0.32-1.86,0.98-2.45,1.99c-0.53,0.99-0.63,2.04-0.31,3.13c0.31,1.06,0.98,1.86,1.97,2.39c0.64,0.34,1.3,0.52,2,0.52
			C346.63,582.5,347.01,582.45,347.4,582.35z"/>
		<path class="st0" d="M387.57,581.35c-1.75-0.53-3.48-0.39-5.11,0.42l-5.39,2.65c-1.05,0.51-1.86,0.59-2.45,0.28
			c-0.7-0.44-1.23-1.01-1.61-1.71c-0.56-1.13-0.7-2.05-0.46-2.67c0.26-0.52,0.91-1.04,1.89-1.52c1.49-0.74,4.42-1.33,8.69-1.78
			c1.2-0.13,1.97-0.93,2.09-2.14c0.22-1.09,0.27-2.19,0.15-3.35c-0.14-0.77-0.47-1.27-0.97-1.47c-0.32-0.13-0.84-0.19-1.42,0.23
			c-0.51,0.3-1.54,0.8-3.06,1.51c-0.28,0.14-0.91,0.39-2.29,0.8c-1.54,0.49-3.28,1.21-5.19,2.15c-1.81,0.89-3.2,1.86-4.08,2.84
			c-0.81,0.77-1.31,1.92-1.55,3.53c-0.17,1.54,0.1,3.05,0.82,4.52c0.77,1.56,1.79,2.73,3.05,3.48c1.16,0.7,2.37,1,3.6,0.85
			c1.61-0.18,3.95-1.01,7.15-2.54c1.54-0.76,2.81-1.03,3.75-0.83c0.67,0.17,1.39,0.95,2.07,2.24c0.66,1.35,0.7,2.63,0.11,3.94
			c-0.55,1.3-1.58,2.31-3.16,3.09c-1.03,0.51-2.25,0.73-3.45,0.76c-1.15-0.01-2.3-0.36-3.55-1.12c-1.15-0.46-2.15-0.43-2.93,0.07
			c-0.55,0.32-1.06,0.83-1.59,1.61c-0.47,0.85-0.32,1.54-0.06,2.05c0.28,0.45,0.67,0.83,1.09,1.1c0.84,0.66,2.23,1.13,4.3,1.45
			c0.3,0.03,0.62,0.04,0.93,0.04c2.17,0,4.6-0.65,7.23-1.95c3.05-1.5,5.15-3.39,6.23-5.63c1.31-2.71,1.25-5.58-0.17-8.56
			C391.13,583.41,389.56,581.96,387.57,581.35z"/>
		<path class="st0" d="M423.76,565.68c-0.34-0.53-1.06-1.65-2.02-1.34c-0.96,0.28-0.96,1.55-0.96,2.27
			c0.15,1.11,0.09,2.21-0.15,3.22c-0.41,1.39-0.95,2.35-1.61,2.86c-0.71,0.56-1.36,0.55-2.19-0.04c-1.03-0.72-2.62-2.43-4.72-5.1
			c-1.96-2.48-3.67-4.78-5.09-6.85c1.32-0.83,2.78-1.5,4.34-2.01c0.17-0.05,0.31-0.16,0.42-0.29c0.51-0.65,0.79-1.52,0.86-2.69
			c0.04-1.1-0.13-2.08-0.51-2.96c-0.36-0.69-0.83-1.04-1.38-1.04c-0.6,0.09-1.04,0.35-1.33,0.92c-1.41,1.74-2.93,3.36-4.54,4.82
			c-1.69-2.72-2.81-5.05-3.34-6.93c-0.04-0.13-0.1-0.24-0.19-0.34c-0.62-0.7-1.45-1.1-2.55-1.19c-1.8-0.05-3,0.24-3.77,0.85
			c-0.51,0.46-0.87,1.11-1.13,2.08c-0.15,0.93-0.01,1.68,0.41,2.22c0.07,0.09,0.15,0.16,0.24,0.21c1.42,0.85,2.95,2.31,4.54,4.34
			c0.55,0.69,1.15,1.48,1.81,2.36c-1.17,0.9-2.18,1.34-3.02,1.23c-0.19-0.01-0.42,0.04-0.59,0.16c-0.92,0.65-1.37,1.73-1.33,3.18
			c-0.03,1.36,0.37,2.45,1.13,3.18c0.33,0.37,0.76,0.54,1.2,0.51c0.83-0.08,1.41-0.89,1.73-1.44c0.88-1.22,1.94-2.49,3.15-3.76
			c2.08,2.82,4.59,6.25,7.56,10.3c1.88,2.39,3.95,3.78,6.16,4.14c0.35,0.06,0.69,0.09,1.04,0.09c1.5,0,3-0.55,4.47-1.66
			c1.08-0.85,1.88-2.02,2.37-3.48c0.44-1.34,0.54-2.65,0.32-3.78C425.01,568.46,424.57,567.12,423.76,565.68z"/>
		<path class="st0" d="M448.67,535.93c-0.42-0.23-1.39-0.77-2.09-0.15c-0.67,0.6-0.27,1.6-0.13,1.96c0.66,1.46,1.01,3.25,1.06,5.29
			c0.01,2.34-0.6,4.2-1.87,5.67c-1.46,1.64-3.31,2.32-5.6,2.1c-1.97-0.24-3.97-1.17-5.97-2.77c1.25-2.33,2.47-4.18,3.65-5.5
			c1.36-1.58,2.94-3.1,4.8-4.61c1.3-1.47,2-2.95,2.07-4.5c-0.07-1.13-0.84-2.34-2.36-3.69c-0.77-0.69-2.27-1.24-4.77-1.75
			c-2.65-0.32-4.97-0.2-6.98,0.41c-1.44,0.61-2.92,1.74-4.38,3.39c-2.35,2.66-3.28,5.8-2.73,9.39c0.84,3.76,3.04,7.27,6.54,10.43
			c3.22,2.86,6.49,4.4,9.71,4.59c0.22,0.01,0.44,0.02,0.65,0.02c3.15,0,6.08-1.51,8.73-4.5c1.91-2.16,3.18-4.59,3.76-7.28
			c0.34-2.02-0.12-4.1-1.41-6.26C450.62,537.14,449.68,536.38,448.67,535.93z M434.39,532.81c1.78,0.12,3.26,0.66,4.38,1.61
			c0.13,0.11,0.19,0.19,0.23,0.21l-8.4,9.8c-0.83-1.14-1.47-2.36-1.89-3.59c-0.73-2.92-0.56-5.05,0.51-6.31
			C430.45,533.16,432.12,532.59,434.39,532.81z"/>
		<path class="st0" d="M466.09,522.18c-0.07-0.05-0.14-0.08-0.21-0.11c-3.38-1.17-7.71-3.21-12.87-6.07c-1.02-1-1.78-1.96-2.28-2.87
			c-1.32-2.3-1.52-4.16-0.63-5.66c0.59-0.99,1.64-1.49,3.26-1.56c1.01-0.1,1.75-0.43,2.25-1.01c0.63-0.85,0.2-2.04,0.06-2.44
			c-0.35-0.96-1-1.7-1.91-2.19c-1-0.54-2.06-0.57-3.08-0.09c-2.25,1.06-3.86,2.39-4.79,3.94c-1.08,1.79-1.31,3.89-0.69,6.22
			c-0.09-0.11-0.18-0.22-0.27-0.34c-0.07-0.09-0.15-0.16-0.24-0.21c-1.68-1-2.58,0.03-2.82,0.38c-0.54,0.82-0.92,1.87-1.11,3.16
			c-0.19,1.63,0.61,2.48,1.46,2.97c3.75,1.39,7.35,3.09,10.72,5.05c3.61,2.16,6.82,4.35,9.62,6.57c0.98,0.63,1.89,0.95,2.72,0.95
			c0.1,0,0.2-0.01,0.3-0.01c0.75-0.06,1.44-0.53,2.05-1.46c0.46-0.78,0.46-1.83-0.03-3.18
			C467.17,523.26,466.68,522.59,466.09,522.18z"/>
		<path class="st0" d="M486.37,482.95c-0.88-2.87-2.87-4.95-5.93-6.17c-2.35-0.91-4.49-0.91-6.36-0.01
			c-1.65,0.8-2.82,2.07-3.48,3.78l-2.16,5.61c-0.42,1.08-0.96,1.7-1.6,1.87c-0.82,0.16-1.59,0.1-2.34-0.16
			c-1.18-0.46-1.92-1.04-2.15-1.65c-0.16-0.56-0.03-1.39,0.36-2.4c0.59-1.53,2.33-3.96,5.17-7.21c0.8-0.91,0.81-2.02,0.09-2.99
			c-0.59-0.95-1.29-1.8-2.16-2.57c-0.62-0.47-1.2-0.62-1.71-0.42c-0.33,0.12-0.75,0.44-0.89,1.14c-0.18,0.58-0.59,1.64-1.23,3.19
			c-0.12,0.3-0.4,0.92-1.13,2.14c-0.8,1.42-1.6,3.14-2.35,5.1c-0.73,1.88-1.09,3.54-1.07,4.85c-0.07,1.1,0.35,2.31,1.26,3.64
			c0.92,1.25,2.15,2.17,3.67,2.76c1.62,0.62,3.16,0.78,4.6,0.49c1.33-0.27,2.41-0.88,3.22-1.82c1.05-1.21,2.2-3.41,3.52-6.72
			c0.61-1.6,1.36-2.67,2.19-3.16c0.61-0.33,1.67-0.25,3.03,0.24c1.41,0.54,2.3,1.46,2.75,2.82c0.48,1.33,0.41,2.77-0.22,4.41
			c-0.42,1.08-1.1,2.05-2.02,2.9c-0.86,0.79-1.91,1.29-3.36,1.58c-1.45,0.54-1.95,1.43-2.1,2.04c-0.18,0.61-0.22,1.35-0.07,2.26
			c0.23,0.94,0.81,1.35,1.34,1.55c0.3,0.08,0.61,0.12,0.93,0.12c0.21,0,0.42-0.02,0.61-0.05c1.07-0.08,2.41-0.68,4.14-1.86
			c1.91-1.47,3.49-3.81,4.7-6.94C486.84,488.14,487.1,485.33,486.37,482.95z"/>
	</g>
	<g>
		<path class="st0" d="M124.97,374.24c-0.65-0.08-2.44-0.33-5.37-0.76c-6.23-1-10.95-1.99-14.03-2.93
			c-1.31-0.41-2.27-0.73-2.95-0.99c-0.63-0.18-1.26-0.1-1.88,0.27c-0.73,0.5-1,1.43-0.8,2.74c0.04,0.38-0.04,0.81-0.24,1.25
			c-0.59,1.18-0.37,2.26,0.61,2.97c0.62,0.43,1.95,1.01,6.44,1.03c3.73,0.04,8.75,0.55,14.92,1.5c1.08,0.16,2.34,0.38,3.77,0.64
			c1.5,0.28,2.92,0.8,4.2,1.54c2.73,1.66,3.74,4,3.1,7.04c-0.57,1.68-1.64,2.83-3.23,3.5c-1.36,0.51-2.66,0.37-3.98-0.44
			c-0.87-0.56-1.54-0.33-1.79-0.19c-0.74,0.32-1,1.23-1.16,2.13c-0.12,0.92,0.03,1.91,0.49,3.01c0.67,1.35,1.86,2.2,3.54,2.51
			c0.41,0.08,0.83,0.12,1.25,0.12c1.57,0,3.18-0.53,4.82-1.6c2.24-1.49,3.74-4.21,4.46-8.09c0.8-4.26-0.03-7.93-2.43-10.91
			C133.15,376.6,129.98,375.18,124.97,374.24z"/>
		<path class="st0" d="M145.13,346.97c-0.07-0.03-0.15-0.06-0.23-0.07c-3.9-0.58-8.46-1.86-13.56-3.8
			c-3.37-1.28-5.98-2.49-7.92-3.66c-0.96-0.36-1.99-0.28-3.08,0.25c-1.04,0.54-1.74,1.19-2.11,1.99c-0.2,0.53-0.3,1.38,0.4,2.39
			c0.21,0.27,0.53,0.53,0.98,0.78c-1.92,1.1-3.27,2.66-4.03,4.66c-1.2,3.16-0.72,6.42,1.42,9.69c2.03,3.1,5.38,5.56,9.97,7.3
			c2.48,0.94,4.93,1.42,7.34,1.42c1.33,0,2.65-0.15,3.96-0.44c3.66-0.93,6.17-3.12,7.46-6.52c0.87-2.29,0.84-4.59-0.07-6.84
			c0.31,0.04,0.59,0.05,0.87,0.02c0.6-0.09,1.09-0.46,1.42-1.12c0.37-0.97,0.2-2.13-0.51-3.45
			C146.71,348.2,145.96,347.35,145.13,346.97z M141.58,359.4c-0.63,1.65-1.94,2.62-4.02,2.98c-2.5,0.45-5.67-0.03-9.4-1.41
			c-3.2-1.22-5.65-2.83-7.28-4.8c-1.41-1.72-1.79-3.38-1.15-5.07c0.57-1.51,1.92-2.71,3.97-3.55c0.94-0.34,2.1-0.6,3.45-0.78
			c0.85,0.21,1.69,0.47,2.49,0.78c3.72,1.41,7.07,2.81,9.95,4.15c0.44,0.67,0.84,1.33,1.19,1.92
			C141.89,355.86,142.15,357.81,141.58,359.4z"/>
		<path class="st0" d="M161.02,340.33c-0.26-0.6-0.73-1.17-1.43-1.72c-0.07-0.05-0.14-0.09-0.22-0.12
			c-2.13-0.83-4.49-1.92-7.05-3.26c0.22-0.07,0.43-0.15,0.63-0.24c1.94-0.74,3.69-2.33,5.23-4.73c1.99-3.21,2.18-6.55,0.57-9.97
			c-1.57-3.13-4.36-5.97-8.28-8.45c-3.1-1.91-6.49-2.76-10.12-2.5c-3.57,0.49-6.25,2.15-7.97,4.94c-1.26,2.04-1.76,4.42-1.47,7.03
			c-0.05-0.06-0.11-0.11-0.18-0.15c-1.14-0.7-1.99-0.51-2.48-0.22c-1.01,0.55-1.68,1.1-2.05,1.69c-0.37,0.6-0.5,1.26-0.37,2.01
			c0.22,0.96,0.49,1.53,0.88,1.85c0.06,0.05,0.14,0.1,0.21,0.13c4.06,1.76,8.36,4.04,12.8,6.78c7.47,4.63,13.25,8.4,17.2,11.22
			c0.63,0.44,1.3,0.65,1.92,0.65c0.21,0,0.41-0.02,0.59-0.07c0.55-0.03,1.33-0.26,1.93-1.24c0.35-0.57,0.38-1.33,0.08-2.27
			C161.29,341.3,161.16,340.89,161.02,340.33z M147.67,317.08c2.91,1.8,4.94,3.69,6.05,5.66c1.12,1.81,1.2,3.42,0.27,4.94
			c-0.97,1.57-2.27,2.83-3.8,3.72c-1.04,0.49-2.09,0.8-3.14,0.9c-1.54-0.91-3.15-1.89-4.83-2.93c-2.08-1.29-3.89-2.43-5.41-3.41
			c-0.46-1.06-0.8-2.12-0.98-3.1c-0.29-2.63-0.03-4.64,0.74-5.97c0.76-1.23,2.17-1.85,4.29-1.88
			C143.03,315.02,145.34,315.68,147.67,317.08z"/>
		<path class="st0" d="M182.26,295.85c-0.06-0.06-0.12-0.11-0.19-0.15c-3.41-1.97-7.18-4.84-11.21-8.52
			c-2.67-2.43-4.65-4.51-6.01-6.32c-0.75-0.68-1.74-0.98-2.97-0.9c-1.18,0.13-2.05,0.46-2.69,1.08c-0.38,0.42-0.79,1.17-0.51,2.37
			c0.1,0.33,0.3,0.69,0.62,1.09c-2.18,0.32-4.01,1.28-5.46,2.86c-2.28,2.5-3.04,5.71-2.24,9.53c0.74,3.63,2.96,7.15,6.58,10.46
			c3.04,2.77,6.45,4.48,10.15,5.06c0.57,0.07,1.12,0.11,1.66,0.11c3.02,0,5.6-1.15,7.67-3.43c1.64-1.8,2.46-3.95,2.45-6.38
			c0.27,0.15,0.54,0.26,0.81,0.35c0.6,0.12,1.17-0.03,1.73-0.52c0.7-0.77,0.96-1.91,0.79-3.4
			C183.28,297.56,182.89,296.49,182.26,295.85z M174.39,306.1c-1.19,1.31-2.77,1.73-4.83,1.29c-2.49-0.51-5.26-2.11-8.22-4.77
			c-2.53-2.31-4.22-4.72-5-7.14c-0.68-2.12-0.42-3.8,0.8-5.13c1.09-1.2,2.78-1.81,5-1.84c1.01,0.03,2.19,0.21,3.5,0.54
			c0.72,0.51,1.4,1.07,2.03,1.64c2.95,2.69,5.55,5.22,7.72,7.52c0.16,0.78,0.3,1.54,0.4,2.22
			C175.98,302.91,175.51,304.82,174.39,306.1z"/>
		<path class="st0" d="M201.53,270.49c-2.67-3.54-4.68-5.91-6.13-7.2c-1.49-1.46-3.39-2.33-5.62-2.59
			c-2.52-0.36-4.91,0.31-7.11,1.97c-1.61,1.21-2.79,2.93-3.49,5.09c-0.35-0.15-0.77-0.21-1.25-0.18c-1.1,0.05-2.09,0.36-2.96,0.96
			c-0.79,0.6-1.31,1.43-1.54,2.55c-0.11,0.8,0.15,1.64,0.87,2.58c2.9,2.85,5.66,6.01,8.2,9.38c2.79,3.71,5.25,7.35,7.32,10.84
			c0.42,0.62,0.92,0.83,1.26,0.89c0.11,0.02,0.22,0.03,0.33,0.03c0.45,0,0.92-0.17,1.42-0.51c0.76-0.57,1.36-1.5,1.75-2.69
			c0.51-1.23,0.41-2.42-0.39-3.56c-3.29-3.3-5.8-6.06-7.46-8.2c-1.74-2.25-3.16-4.26-4.23-5.99c0-0.3,0.03-0.59,0.1-0.97
			c0.21-2.59,1.26-4.56,3.22-6.04c0.84-0.63,1.81-0.89,2.94-0.77c0.91,0.13,1.92,0.68,3,1.63c1.35,1.2,3.13,3.27,5.3,6.15
			c1.73,2.3,3.61,5.48,5.67,9.57c1.5,2.13,3.05,1.41,3.66,0.98c0.87-0.65,1.51-1.67,1.91-3.03c0.3-1.03,0.08-2.14-0.73-3.38
			C205.08,275.11,203.06,272.58,201.53,270.49z"/>
		<path class="st0" d="M248.65,252.34c-0.01,0-0.02,0-0.04,0c-0.99,0-1.39,1.21-1.61,1.91c-0.21,1.15-0.62,2.22-1.19,3.15
			c-0.86,1.24-1.71,2.02-2.53,2.32c-0.9,0.34-1.55,0.11-2.19-0.75c-0.79-1.05-1.81-3.27-3.02-6.58c-1.14-3.1-2.09-5.94-2.84-8.45
			c1.58-0.39,3.26-0.59,4.99-0.59c0.17,0,0.35-0.05,0.49-0.15c0.7-0.48,1.28-1.26,1.71-2.36c0.39-1.07,0.54-2.08,0.45-3.07
			c-0.14-0.79-0.47-1.27-1.01-1.45c-0.54-0.19-1.11,0.01-1.58,0.48c-1.97,1.28-4.02,2.39-6.08,3.32c-0.8-3.26-1.17-5.94-1.08-7.97
			c0.01-0.13-0.02-0.26-0.07-0.39c-0.38-0.89-1.08-1.55-2.12-1.98c-1.77-0.6-3.02-0.73-3.99-0.37c-0.63,0.29-1.21,0.82-1.77,1.68
			c-0.44,0.87-0.54,1.64-0.3,2.3c0.04,0.1,0.09,0.19,0.16,0.27c1.13,1.3,2.17,3.25,3.1,5.78c0.32,0.86,0.66,1.85,1.04,2.95
			c-1.47,0.53-2.62,0.62-3.44,0.26c-0.19-0.08-0.41-0.09-0.61-0.03c-1.11,0.34-1.89,1.26-2.33,2.69c-0.46,1.33-0.42,2.52,0.09,3.48
			c0.2,0.46,0.56,0.76,1,0.86c0.83,0.18,1.65-0.43,2.15-0.86c1.26-0.93,2.73-1.84,4.36-2.73c1.15,3.47,2.53,7.69,4.16,12.67
			c1.08,2.96,2.68,5,4.74,6.06c0.94,0.5,1.96,0.74,3.05,0.74c0.91,0,1.87-0.17,2.88-0.52c1.35-0.49,2.51-1.39,3.46-2.66
			c0.87-1.19,1.39-2.44,1.54-3.63c0.31-1.26,0.3-2.72-0.02-4.4C250.03,253.68,249.68,252.37,248.65,252.34z"/>
		<path class="st0" d="M275.79,232.24c-1.3-1.81-3.29-3.15-5.91-3.98c-1.27-0.4-1.86-0.7-2.1-0.85c-0.43-0.3-0.81-0.45-1.18-0.42
			c-0.3,0-0.61,0.08-0.93,0.28c0,0-0.07,0.01-0.23-0.04c-0.4-0.14-0.74-0.22-1.22-0.22c-0.58,0.1-1.05,0.52-1.39,1.25
			c-0.09,0.19-0.29,0.35-0.63,0.48c-2.67,1.13-4.63,3-5.85,5.58c0,0.01-0.01,0.02-0.02,0.04c-1.24,2.96-1.5,6.57-0.79,10.74
			c0.68,4.02,2.37,7.49,5,10.31c2.09,2.33,4.6,3.51,7.49,3.51c0.64,0,1.3-0.06,1.97-0.17c3.68-0.63,6.42-3.03,8.17-7.14
			c1.39-3.27,1.75-6.98,1.05-11.04C278.69,237.38,277.53,234.58,275.79,232.24z M273.17,249.79c-0.92,2.65-2.22,4.08-3.95,4.38
			c-1.72,0.3-3.34-0.52-4.93-2.5c-1.68-2.06-2.83-4.85-3.41-8.3c-0.45-2.64-0.39-5.06,0.19-7.21c0.39-1.65,1.07-2.63,2.05-2.98
			c0.9-0.31,1.75-0.49,2.49-0.55c1.04-0.01,2.01,0.07,2.94,0.27c0.46,0.07,1.26,0.46,2.45,1.92c1.35,1.61,2.28,3.86,2.76,6.67
			C274.27,244.46,274.07,247.26,273.17,249.79z"/>
		<path class="st0" d="M326.3,230.27c-2.34,0.26-4.66,0.35-6.93,0.26c0.73-3.27,1.6-5.83,2.59-7.62c0.06-0.11,0.1-0.24,0.11-0.37
			c0.05-0.96-0.27-1.86-1.01-2.72c-1.33-1.33-2.39-2-3.4-2.11c-0.71-0.04-1.44,0.19-2.34,0.71c-0.79,0.58-1.22,1.23-1.3,1.92
			c-0.01,0.1,0,0.21,0.02,0.31c0.43,1.67,0.5,3.87,0.2,6.55c-0.1,0.92-0.23,1.95-0.39,3.11c-1.55-0.18-2.62-0.62-3.2-1.31
			c-0.14-0.16-0.33-0.27-0.53-0.3c-1.16-0.19-2.26,0.29-3.28,1.37c-1.01,0.99-1.5,2.07-1.47,3.16c-0.03,0.5,0.15,0.93,0.5,1.22
			c0.66,0.54,1.67,0.36,2.31,0.19c1.56-0.27,3.28-0.43,5.13-0.49c-0.52,3.62-1.17,8.01-1.93,13.2c-0.35,3.13,0.17,5.67,1.54,7.54
			c1.14,1.58,2.88,2.54,5.2,2.84c0.26,0.03,0.51,0.04,0.77,0.04c1.17,0,2.35-0.3,3.51-0.89c1.3-0.67,2.33-1.56,2.99-2.56
			c0.84-1,1.48-2.31,1.94-3.95c0.13-0.63,0.4-1.95-0.5-2.44c-0.89-0.47-1.81,0.45-2.32,0.98c-0.71,0.94-1.55,1.71-2.47,2.29
			c-1.32,0.73-2.42,1.05-3.3,0.95c-0.95-0.11-1.44-0.6-1.62-1.65c-0.24-1.3-0.16-3.73,0.23-7.24c0.36-3.26,0.77-6.23,1.23-8.84
			c1.59,0.35,3.17,0.92,4.73,1.7c0.15,0.08,0.33,0.11,0.5,0.08c0.84-0.11,1.7-0.56,2.58-1.36c0.83-0.79,1.42-1.63,1.77-2.55
			c0.23-0.76,0.14-1.35-0.26-1.75C327.52,230.14,326.91,230.06,326.3,230.27z"/>
		<path class="st0" d="M355.35,234.17c-3.02-0.9-5.79-0.78-8.25,0.34c-0.17,0.08-0.34,0.16-0.51,0.25c1.11-2.91,2.34-5.49,3.69-7.77
			c0.28-0.75,0.11-1.71-0.57-3.04c-0.72-1.1-1.33-1.64-1.78-1.7c-0.51-0.21-1.15-0.23-2.08,0.03c-0.65,0.35-1.2,0.91-1.64,1.67
			c-0.05,0.08-0.08,0.16-0.1,0.25c-0.91,4.35-2.28,9.57-4.04,15.53c-1.3,4.35-3.25,10.21-5.83,17.44c-0.8,2.72,0.84,3.53,1.59,3.75
			c0.75,0.22,1.57,0.2,2.52-0.09c1.03-0.43,1.68-1.05,1.95-2.01c0.51-4.35,1.85-10.16,4-17.28c1.1-0.84,2.11-1.52,2.94-1.98
			c2.02-0.85,3.97-1,5.94-0.45c1.39,0.41,2.32,1.31,2.86,2.7c0.44,1.29,0.22,3.41-0.64,6.32c-1.21,4.2-2.9,9-5.03,14.34
			c-0.46,1.53,0.04,2.71,1.37,3.18c0.32,0.09,0.65,0.14,0.99,0.14c0.53,0,1.12-0.12,1.76-0.36c0.86-0.47,1.5-1.32,1.92-2.55
			c1.19-3.85,2.48-8.34,3.83-13.31c1.49-5,1.73-8.45,0.74-10.54C359.87,236.59,357.97,234.95,355.35,234.17z"/>
		<path class="st0" d="M389.62,249.36c-0.98-1.29-2.52-2.46-4.56-3.49c-3.28-1.66-6.68-1.75-10.13-0.24
			c-3.55,1.83-6.48,4.98-8.73,9.34c-2.01,3.99-2.7,7.68-2.03,10.96c0.68,3.46,3.03,6.23,6.99,8.22c2.44,1.23,4.98,1.85,7.57,1.85
			c0.24,0,0.48-0.01,0.73-0.02c2.12-0.19,4.09-1.21,5.9-3.07c0.82-1.03,1.34-2.16,1.52-3.29c0.12-0.47,0.4-1.58-0.39-2.1
			c-0.76-0.5-1.62,0.13-1.97,0.39c-1.28,1.04-2.99,1.88-5.05,2.48c-2.35,0.63-4.39,0.51-6.23-0.37c-2.05-1.03-3.23-2.71-3.62-5.11
			c-0.29-2.05,0.12-4.33,1.21-6.78c2.69,0.63,4.88,1.37,6.54,2.21c1.97,0.95,3.92,2.13,5.92,3.6c1.82,0.91,3.49,1.22,5.05,0.89
			c1.12-0.37,2.12-1.46,3.06-3.33c0.48-0.97,0.64-2.61,0.48-5.25C391.51,253.49,390.76,251.2,389.62,249.36z M385.82,259.3
			c-0.09,0.18-0.17,0.27-0.17,0.31l-12.16-5.87c0.93-1.15,2-2.13,3.15-2.9c2.76-1.52,4.95-1.9,6.51-1.16
			c1.72,0.87,2.74,2.42,3.13,4.76C386.63,256.27,386.47,257.91,385.82,259.3z"/>
		<path class="st0" d="M438.97,293.15c1.74-0.82,2.52-1.8,2.31-2.93c-0.24-1.29-1.02-2.34-2.31-3.1c-1.07-0.67-2.16-0.43-2.94,0.55
			c-1.47,1.47-3.42,3.12-5.78,4.89c-2.08,1.56-5.01,3.66-8.69,6.22c2.08-2.86,4.13-5.64,6.17-8.34c1.95-2.61,3.6-4.68,4.95-6.21
			c1.04-1.4,0.78-2.39,0.34-3.01c-0.75-0.97-1.65-1.77-2.68-2.38c-0.46-0.26-1.66-0.72-2.74,0.66c-1.01,1.06-2.43,2.33-4.21,3.78
			c-3.57,2.83-7.38,5.64-11.23,8.29c1.99-2.77,4.41-6.01,7.2-9.64c2.02-2.51,3.56-4.34,4.47-5.36c1.03-0.8,1.29-1.85,0.67-2.84
			c-0.82-1.17-1.8-1.98-2.98-2.41c-1.51-0.45-2.73,0.15-3.35,1.62c-2.5,4.34-5.55,9.31-9.07,14.8c-2.46,4.14-3.46,5.51-3.87,5.94
			c-1.12,1.17-1.09,2.54,0.11,3.69c0.7,0.6,1.74,1.08,3.15,1.46c1.11,0.34,2.11,0.09,2.92-0.75c1.4-1.46,3.23-3.01,5.43-4.61
			c1.91-1.42,4.27-3.21,7.09-5.36c-2.82,3.67-5.4,7.19-7.7,10.48c-0.49,0.74-1.17,1.61-1.97,2.57c-0.78,0.82-1.13,1.58-1.06,2.43
			c0.13,0.67,0.53,1.33,1.19,1.96c0.64,0.61,1.44,1.05,2.49,1.32c0.11,0.02,0.21,0.02,0.32,0.02c0.67,0,1.34-0.31,2.02-0.95
			c1.17-1.16,2.91-2.45,5.16-3.83c4.18-2.42,7.91-4.72,11.08-6.82C436.87,294.36,438.08,293.63,438.97,293.15z"/>
		<path class="st0" d="M454.94,316.85c1.05-1.97,1.37-4.34,0.96-7.06c-0.19-1.32-0.19-1.99-0.16-2.26c0.05-0.34,0.09-0.83-0.14-1.25
			c-0.12-0.26-0.34-0.5-0.67-0.71c0,0-0.04-0.05-0.06-0.21c-0.05-0.43-0.13-0.78-0.34-1.19c-0.34-0.48-1.03-0.72-1.74-0.7
			c-0.11,0-0.43-0.1-0.71-0.35c-2.14-1.85-4.62-2.79-7.39-2.79c-0.07,0-0.15-0.01-0.23,0c-3.19,0.19-6.55,1.55-9.99,4.03
			c-3.3,2.38-5.67,5.43-7.04,9.03c-1.43,3.55-1.03,6.9,1.18,9.96c2.02,2.79,5.05,4.21,9.02,4.21c0.33,0,0.66-0.01,1-0.03
			c3.55-0.19,7.04-1.52,10.37-3.92C451.6,321.72,453.6,319.44,454.94,316.85z M448.5,305.89c0.67,0.67,1.21,1.36,1.59,1.99
			c0.48,0.93,0.83,1.84,1.06,2.76c0.14,0.44,0.14,1.33-0.64,3.05c-0.85,1.92-2.45,3.74-4.76,5.41c-2.44,1.77-5.04,2.83-7.71,3.14
			c-2.78,0.33-4.64-0.19-5.67-1.61c-1.03-1.43-1.01-3.24,0.06-5.54c1.11-2.41,3.11-4.67,5.95-6.72c2.18-1.57,4.37-2.58,6.55-3
			C446.57,304.99,447.75,305.17,448.5,305.89z"/>
		<path class="st0" d="M462.77,336.39c2.77,0.18,4.5,1.07,5.3,2.73c0.52,1.09,0.36,2.3-0.53,3.76c-0.49,0.94-0.63,1.74-0.4,2.5
			c0.25,0.69,0.92,1.15,2.06,1.43c0.33,0.08,0.67,0.12,0.99,0.12c0.68,0,1.35-0.17,1.99-0.52c1.03-0.55,1.66-1.45,1.83-2.59
			c0.37-2.55,0.15-4.71-0.67-6.4c-0.96-2-2.69-3.41-5.13-4.21c0.2-0.02,0.4-0.04,0.61-0.06c0.11-0.01,0.21-0.04,0.31-0.08
			c1.82-0.87,1.44-2.22,1.28-2.63c-0.4-0.95-1.1-1.87-2.09-2.77c-1.29-1.08-2.47-0.88-3.37-0.44c-3.37,2.46-6.92,4.62-10.55,6.4
			c-3.94,1.89-7.69,3.42-11.22,4.57c-1.23,0.53-2.08,1.23-2.53,2.07c-0.38,0.68-0.36,1.53,0.08,2.58c0.41,0.84,1.29,1.42,2.75,1.78
			c1.07,0.19,1.93,0.15,2.61-0.12c0.07-0.03,0.15-0.07,0.21-0.12c2.95-2.26,7.21-4.84,12.66-7.68
			C460.41,336.4,461.69,336.29,462.77,336.39z"/>
		<path class="st0" d="M485.33,358.69c0.97-0.32,1.68-0.96,2.12-1.93c0.51-1.26,0.64-2.23,0.4-2.99c-0.26-0.79-0.89-1.48-1.92-2.08
			c-0.91-0.46-1.72-0.55-2.42-0.24c-0.06,0.02-0.11,0.06-0.16,0.09c-1.74,1.24-6.53,3.15-14.23,5.69
			c-6.56,2.16-11.52,3.59-14.85,4.26c-1.54,0.51-2.61,1.34-3.19,2.48c-0.52,1.04-0.65,1.98-0.38,2.77c0.22,0.67,0.89,1.19,2.22,1.67
			c0.58,0.13,1.13,0.19,1.65,0.19c0.52,0,1.02-0.06,1.48-0.19c0.08-0.02,0.16-0.06,0.23-0.1c3.13-1.96,7.98-4.05,14.43-6.22
			C475.11,360.64,479.97,359.51,485.33,358.69z"/>
		<path class="st0" d="M498.02,389.38c-0.13-0.72-0.51-1.34-1.18-1.91c-0.69-0.47-1.52-0.59-2.49-0.35
			c-0.12,0.03-0.23,0.08-0.33,0.16c-1.33,1.05-3.9,2.05-7.64,2.98c0.06-0.11,0.12-0.23,0.17-0.34c1.07-2.33,1.41-4.72,1-7.12
			c-0.69-3.69-2.9-6.43-6.59-8.16c-3.32-1.46-7.23-1.78-11.65-0.96c-4.2,0.79-7.58,2.65-10.04,5.5c-2.38,2.65-3.22,5.94-2.5,9.78
			c0.38,2,1.53,3.91,3.43,5.69c-0.21,0.19-0.42,0.4-0.61,0.63c-0.72,0.85-1.01,1.68-0.86,2.47c0.12,0.63,0.7,1.11,2.1,1.74
			c1.18,0.61,2.2,0.91,3.09,0.91c0.23,0,0.46-0.02,0.67-0.06c0.05-0.01,0.11-0.02,0.16-0.04c2.66-1.03,7.16-2.14,13.36-3.31
			c10.31-1.94,13.61-2.09,14.64-1.86c0.97,0.13,1.66,0.18,2.25,0.12c0.71-0.19,1.34-0.78,1.98-1.86
			C497.81,391.68,498.15,390.38,498.02,389.38z M481.27,389.53c-0.39,0.7-0.87,1.38-1.47,2.07c-4.98,0.89-9.52,1.46-13.51,1.71
			c-2.56-1.48-4.07-3.26-4.48-5.28c-0.39-2.05,0.2-3.84,1.75-5.45c1.8-1.73,4.31-2.91,7.46-3.5c1.06-0.2,2.09-0.3,3.08-0.3
			c1.58,0,3.05,0.25,4.41,0.76c2.3,0.82,3.61,2.21,4.03,4.21C482.82,385.28,482.38,387.24,481.27,389.53z"/>
	</g>
</g>
</svg>
